<svg xmlns="http://www.w3.org/2000/svg" width="19" height="22" viewBox="0 0 19 22"><g><g><path fill="#1e448b" d="M9.693 10.527c-1.345 0-2.51-.482-3.462-1.432-.952-.95-1.435-2.113-1.435-3.457 0-1.343.483-2.506 1.435-3.456C7.182 1.232 8.347.75 9.693.75c1.345 0 2.51.482 3.462 1.432.952.95 1.435 2.113 1.435 3.456 0 1.344-.483 2.506-1.435 3.457-.952.95-2.116 1.432-3.462 1.432zm-2.62-7.504c-.73.73-1.085 1.585-1.085 2.615 0 1.03.355 1.887 1.085 2.616.731.729 1.588 1.084 2.62 1.084s1.89-.355 2.62-1.084c.73-.73 1.085-1.585 1.085-2.616 0-1.03-.355-1.886-1.086-2.615-.73-.73-1.587-1.084-2.62-1.084-1.032 0-1.888.355-2.619 1.084zm11.188 13.334c.027.387.04.79.04 1.2 0 1.06-.337 1.917-1.002 2.55-.657.623-1.526.94-2.584.94H4.927c-1.058 0-1.927-.317-2.584-.94-.665-.634-1.003-1.491-1.003-2.55 0-.408.014-.812.041-1.2.027-.396.083-.827.165-1.282.083-.46.188-.893.316-1.29.131-.41.31-.814.53-1.202.23-.403.5-.753.801-1.042a3.525 3.525 0 0 1 1.15-.721c.446-.177.94-.266 1.468-.266.207 0 .409.085.796.337.242.157.52.337.83.534.265.17.627.328 1.072.471.435.141.876.213 1.312.213.435 0 .877-.072 1.311-.213.447-.143.807-.302 1.073-.471.312-.199.591-.378.83-.534.387-.252.588-.337.795-.337.529 0 1.022.09 1.469.265.447.177.833.42 1.15.722.302.288.571.64.8 1.042.221.388.4.792.531 1.202.127.397.233.831.316 1.29.082.455.138.887.165 1.282zm-1.783 2.888c.425-.405.633-.957.633-1.689 0-.381-.013-.756-.039-1.115a10.676 10.676 0 0 0-.427-2.293 5.14 5.14 0 0 0-.432-.978 3.349 3.349 0 0 0-.588-.77 2.342 2.342 0 0 0-.765-.474 2.73 2.73 0 0 0-.938-.181 3.195 3.195 0 0 0-.237.143l-.838.54c-.353.224-.806.426-1.348.6a5.472 5.472 0 0 1-1.678.27 5.46 5.46 0 0 1-1.679-.27c-.541-.174-.995-.376-1.347-.6-.311-.2-.594-.381-.838-.54a3.234 3.234 0 0 0-.236-.143c-.343.009-.658.07-.94.18-.302.12-.56.28-.764.475a3.363 3.363 0 0 0-.588.77c-.18.317-.326.646-.433.978a10.643 10.643 0 0 0-.426 2.292c-.026.36-.038.736-.038 1.116 0 .732.207 1.284.632 1.689.434.412 1.011.613 1.763.613h9.788c.753 0 1.329-.201 1.763-.613z"/><path fill="none" stroke="#1e448b" stroke-miterlimit="20" stroke-width=".5" d="M9.693 10.527c-1.345 0-2.51-.482-3.462-1.432-.952-.95-1.435-2.113-1.435-3.457 0-1.343.483-2.506 1.435-3.456C7.182 1.232 8.347.75 9.693.75c1.345 0 2.51.482 3.462 1.432.952.95 1.435 2.113 1.435 3.456 0 1.344-.483 2.506-1.435 3.457-.952.95-2.116 1.432-3.462 1.432zm-2.62-7.504c-.73.73-1.085 1.585-1.085 2.615 0 1.03.355 1.887 1.085 2.616.731.729 1.588 1.084 2.62 1.084s1.89-.355 2.62-1.084c.73-.73 1.085-1.585 1.085-2.616 0-1.03-.355-1.886-1.086-2.615-.73-.73-1.587-1.084-2.62-1.084-1.032 0-1.888.355-2.619 1.084zm11.188 13.334c.027.387.04.79.04 1.2 0 1.06-.337 1.917-1.002 2.55-.657.623-1.526.94-2.584.94H4.927c-1.058 0-1.927-.317-2.584-.94-.665-.634-1.003-1.491-1.003-2.55 0-.408.014-.812.041-1.2.027-.396.083-.827.165-1.282.083-.46.188-.893.316-1.29.131-.41.31-.814.53-1.202.23-.403.5-.753.801-1.042a3.525 3.525 0 0 1 1.15-.721c.446-.177.94-.266 1.468-.266.207 0 .409.085.796.337.242.157.52.337.83.534.265.17.627.328 1.072.471.435.141.876.213 1.312.213.435 0 .877-.072 1.311-.213.447-.143.807-.302 1.073-.471.312-.199.591-.378.83-.534.387-.252.588-.337.795-.337.529 0 1.022.09 1.469.265.447.177.833.42 1.15.722.302.288.571.64.8 1.042.221.388.4.792.531 1.202.127.397.233.831.316 1.29.082.455.138.887.165 1.282zm-1.783 2.888c.425-.405.633-.957.633-1.689 0-.381-.013-.756-.039-1.115v0a10.676 10.676 0 0 0-.427-2.293 5.14 5.14 0 0 0-.432-.978 3.349 3.349 0 0 0-.588-.77 2.342 2.342 0 0 0-.765-.474 2.73 2.73 0 0 0-.938-.181 3.195 3.195 0 0 0-.237.143l-.838.54c-.353.224-.806.426-1.348.6a5.472 5.472 0 0 1-1.678.27 5.46 5.46 0 0 1-1.679-.27c-.541-.174-.995-.376-1.347-.6-.311-.2-.594-.381-.838-.54a3.234 3.234 0 0 0-.236-.143c-.343.009-.658.07-.94.18-.302.12-.56.28-.764.475a3.363 3.363 0 0 0-.588.77c-.18.317-.326.646-.433.978a10.643 10.643 0 0 0-.426 2.292c-.026.36-.038.736-.038 1.116 0 .732.207 1.284.632 1.689.434.412 1.011.613 1.763.613h9.788c.753 0 1.329-.201 1.763-.613z"/></g></g></svg>