<svg xmlns="http://www.w3.org/2000/svg" width="23" height="20" viewBox="0 0 23 20"><g><g><path fill="#f5fbfe" d="M13.176 6.35l-.003 4.225 3.03 3.025-.909.908-3.218-3.213a.638.638 0 0 1-.188-.454l.001-4.492zm0-5.138c4.965 0 9.004 4.033 9.004 8.99 0 4.956-4.039 8.989-9.004 8.989a8.961 8.961 0 0 1-7.098-3.46l1.013-.79a7.682 7.682 0 0 0 6.085 2.965c4.256 0 7.718-3.456 7.718-7.704 0-4.25-3.462-7.705-7.718-7.705-3.816 0-6.985 2.782-7.6 6.42h2.456l-3.216 3.21L1.6 8.918h2.675c.627-4.348 4.374-7.705 8.9-7.705z"/><path fill="none" stroke="#f5fbfe" stroke-miterlimit="20" d="M13.176 6.35l-.003 4.225 3.03 3.025-.909.908-3.218-3.213a.638.638 0 0 1-.188-.454l.001-4.492zm0-5.138c4.965 0 9.004 4.033 9.004 8.99 0 4.956-4.039 8.989-9.004 8.989a8.961 8.961 0 0 1-7.098-3.46l1.013-.79a7.682 7.682 0 0 0 6.085 2.965c4.256 0 7.718-3.456 7.718-7.704 0-4.25-3.462-7.705-7.718-7.705-3.816 0-6.985 2.782-7.6 6.42h2.456l-3.216 3.21L1.6 8.918h2.675c.627-4.348 4.374-7.705 8.9-7.705z"/></g></g></svg>