<svg xmlns="http://www.w3.org/2000/svg" width="22" height="22" viewBox="0 0 22 22"><g><g><path fill="#f5fbfe" d="M2.09 7.573A1.49 1.49 0 0 1 .6 6.087V2.265C.6 1.445 1.27.78 2.09.78h6.38c.82 0 1.488.666 1.488 1.486v3.822A1.49 1.49 0 0 1 8.47 7.573zm0-5.52a.213.213 0 0 0-.213.212v3.822c0 .117.095.212.213.212h6.38a.213.213 0 0 0 .212-.212V2.265a.213.213 0 0 0-.213-.212zm0 19.11A1.49 1.49 0 0 1 .6 19.675v-8.918c0-.82.669-1.486 1.49-1.486h6.38c.82 0 1.488.666 1.488 1.486v8.918a1.49 1.49 0 0 1-1.489 1.486zm0-10.617a.213.213 0 0 0-.213.212v8.918c0 .117.095.212.213.212h6.38a.213.213 0 0 0 .212-.212v-8.918a.213.213 0 0 0-.213-.212zm11.058 10.616a1.49 1.49 0 0 1-1.49-1.486v-3.822c0-.82.67-1.486 1.49-1.486h6.38c.82 0 1.489.666 1.489 1.486v3.822a1.49 1.49 0 0 1-1.49 1.486zm0-5.52a.213.213 0 0 0-.213.212v3.822c0 .117.095.212.213.212h6.38a.213.213 0 0 0 .213-.212v-3.822a.213.213 0 0 0-.213-.212zm0-2.973a1.49 1.49 0 0 1-1.49-1.486V2.265c0-.82.67-1.486 1.49-1.486h6.38c.82 0 1.489.666 1.489 1.486v8.918a1.49 1.49 0 0 1-1.49 1.486zm0-10.616a.213.213 0 0 0-.213.212v8.918c0 .117.095.212.213.212h6.38a.213.213 0 0 0 .213-.212V2.265a.213.213 0 0 0-.213-.212z"/><path fill="none" stroke="#f5fbfe" stroke-miterlimit="20" stroke-width=".2" d="M2.09 7.573A1.49 1.49 0 0 1 .6 6.087V2.265C.6 1.445 1.27.78 2.09.78h6.38c.82 0 1.488.666 1.488 1.486v3.822A1.49 1.49 0 0 1 8.47 7.573zm0-5.52a.213.213 0 0 0-.213.212v3.822c0 .117.095.212.213.212h6.38a.213.213 0 0 0 .212-.212V2.265a.213.213 0 0 0-.213-.212zm0 19.11A1.49 1.49 0 0 1 .6 19.675v-8.918c0-.82.669-1.486 1.49-1.486h6.38c.82 0 1.488.666 1.488 1.486v8.918a1.49 1.49 0 0 1-1.489 1.486zm0-10.617a.213.213 0 0 0-.213.212v8.918c0 .117.095.212.213.212h6.38a.213.213 0 0 0 .212-.212v-8.918a.213.213 0 0 0-.213-.212zm11.058 10.616a1.49 1.49 0 0 1-1.49-1.486v-3.822c0-.82.67-1.486 1.49-1.486h6.38c.82 0 1.489.666 1.489 1.486v3.822a1.49 1.49 0 0 1-1.49 1.486zm0-5.52a.213.213 0 0 0-.213.212v3.822c0 .117.095.212.213.212h6.38a.213.213 0 0 0 .213-.212v-3.822a.213.213 0 0 0-.213-.212zm0-2.973a1.49 1.49 0 0 1-1.49-1.486V2.265c0-.82.67-1.486 1.49-1.486h6.38c.82 0 1.489.666 1.489 1.486v8.918a1.49 1.49 0 0 1-1.49 1.486zm0-10.616a.213.213 0 0 0-.213.212v8.918c0 .117.095.212.213.212h6.38a.213.213 0 0 0 .213-.212V2.265a.213.213 0 0 0-.213-.212z"/></g></g></svg>