<svg xmlns="http://www.w3.org/2000/svg" width="18" height="21" viewBox="0 0 18 21"><g><g><path fill="#f5fbfe" d="M16.417 8.119a1.78 1.78 0 0 1-2.258 2.735l-.047.01c-1.705.34-3.3 1.023-4.706 2.006l.285.285a1.777 1.777 0 0 1 0 2.518l-.42.42 1.262 1.259A1.782 1.782 0 1 1 8.01 19.87l-2.942-2.938-.42.42a1.785 1.785 0 0 1-2.523 0L.443 15.673a1.777 1.777 0 0 1 0-2.518l3.085-3.08a12.419 12.419 0 0 0 3.414-6.369l.01-.047a1.779 1.779 0 0 1 .217-2.255 1.788 1.788 0 0 1 2.522 0zm-12.61 8.394l2.941-2.938-2.521-2.518-2.943 2.937a.592.592 0 0 0 0 .84l1.682 1.679a.595.595 0 0 0 .84 0zm2.941-1.26l-.84.84L8.85 19.03a.594.594 0 1 0 .841-.84zm1.683 0l.42-.42a.592.592 0 0 0 0-.839l-.393-.391c-.422.36-.69.633-.868.81zm-.816-2.492a13.612 13.612 0 0 1 5.513-2.89L7.936 4.688a13.582 13.582 0 0 1-2.894 5.504zm7.961-2.963a.592.592 0 0 0 0-.84L8.85 2.243a.595.595 0 0 0-.84.84l6.726 6.714a.595.595 0 0 0 .84 0zM4.647 13.154a.594.594 0 0 1 0 .84l-.84.839a.595.595 0 0 1-.841-.84l.84-.839a.596.596 0 0 1 .841 0zM12.421.127c.329 0 .596.266.596.594v1.187a.595.595 0 0 1-1.19 0V.72c0-.328.266-.594.594-.594zm4.756 4.748a.594.594 0 1 1 0 1.188H15.99a.594.594 0 1 1 0-1.188zm-.768-3.387a.592.592 0 0 1 0 .84L15.22 3.513a.596.596 0 0 1-.84 0 .593.593 0 0 1 0-.839l1.188-1.187a.595.595 0 0 1 .841 0z"/></g></g></svg>