<svg xmlns="http://www.w3.org/2000/svg" width="22" height="22" viewBox="0 0 22 22"><g><g><path fill="#f5fbfe" d="M20.897 14.756a6.52 6.52 0 0 1-.912 3.333l.884 3.188-3.194-.882a6.547 6.547 0 0 1-3.338.91 6.574 6.574 0 0 1-6.323-4.797 7.733 7.733 0 0 1-3.603-1.064L.63 16.488l1.047-3.776A7.7 7.7 0 0 1 .6 8.779c0-4.266 3.477-7.737 7.75-7.737 4.161 0 7.566 3.29 7.743 7.402a6.567 6.567 0 0 1 4.804 6.312zm-16.075-.453a6.551 6.551 0 0 0 3.529 1.027c3.617 0 6.56-2.939 6.56-6.55 0-3.613-2.943-6.55-6.56-6.55-3.618 0-6.561 2.937-6.561 6.55a6.52 6.52 0 0 0 1.029 3.522l.142.223-.626 2.26 2.264-.625zm13.877 3.594l.145-.224a5.34 5.34 0 0 0 .864-2.917 5.378 5.378 0 0 0-3.66-5.085c-.41 3.555-3.244 6.384-6.804 6.794a5.385 5.385 0 0 0 5.093 3.653 5.353 5.353 0 0 0 2.921-.862l.225-.146 1.68.464zm-10.943-6.13h1.189v1.188H7.756zM9.54 6.978a1.19 1.19 0 0 0-2.379 0H5.972a2.38 2.38 0 0 1 4.757 0 2.38 2.38 0 0 1-.773 1.753l-1.011.923v.926H7.756V9.131l1.396-1.276c.25-.228.388-.54.388-.877z"/><path fill="none" stroke="#f5fbfe" stroke-miterlimit="20" d="M20.897 14.756a6.52 6.52 0 0 1-.912 3.333l.884 3.188-3.194-.882a6.547 6.547 0 0 1-3.338.91 6.574 6.574 0 0 1-6.323-4.797 7.733 7.733 0 0 1-3.603-1.064L.63 16.488l1.047-3.776A7.7 7.7 0 0 1 .6 8.779c0-4.266 3.477-7.737 7.75-7.737 4.161 0 7.566 3.29 7.743 7.402a6.567 6.567 0 0 1 4.804 6.312zm-16.075-.453a6.551 6.551 0 0 0 3.529 1.027c3.617 0 6.56-2.939 6.56-6.55 0-3.613-2.943-6.55-6.56-6.55-3.618 0-6.561 2.937-6.561 6.55a6.52 6.52 0 0 0 1.029 3.522l.142.223-.626 2.26 2.264-.625zm13.877 3.594l.145-.224a5.34 5.34 0 0 0 .864-2.917 5.378 5.378 0 0 0-3.66-5.085c-.41 3.555-3.244 6.384-6.804 6.794a5.385 5.385 0 0 0 5.093 3.653 5.353 5.353 0 0 0 2.921-.862l.225-.146 1.68.464zm-10.943-6.13h1.189v1.188H7.756zM9.54 6.978a1.19 1.19 0 0 0-2.379 0H5.972a2.38 2.38 0 0 1 4.757 0 2.38 2.38 0 0 1-.773 1.753l-1.011.923v.926H7.756V9.131l1.396-1.276c.25-.228.388-.54.388-.877z"/></g></g></svg>