<svg xmlns="http://www.w3.org/2000/svg" width="22" height="22" viewBox="0 0 22 22"><g><g><path fill="#f5fbfe" d="M17.96 3.946a10.08 10.08 0 0 1 2.978 7.178 10.08 10.08 0 0 1-2.978 7.18 10.113 10.113 0 0 1-7.191 2.973c-2.716 0-5.27-1.056-7.19-2.973A10.08 10.08 0 0 1 .6 11.124 10.08 10.08 0 0 1 3.58 3.946a10.113 10.113 0 0 1 7.19-2.974c2.716 0 5.27 1.057 7.191 2.974zm-7.191 16.141c4.95 0 8.977-4.02 8.977-8.963 0-4.941-4.027-8.962-8.977-8.962s-8.977 4.02-8.977 8.962 4.027 8.963 8.977 8.963zm.638-9.557a2.512 2.512 0 0 1 2.51 2.506 2.511 2.511 0 0 1-2.51 2.506h-.042v1.317a.595.595 0 0 1-1.191 0v-1.317h-1.32a.595.595 0 0 1 0-1.189h2.553a1.32 1.32 0 0 0 1.319-1.317c0-.726-.591-1.316-1.319-1.316h-1.276a2.511 2.511 0 0 1-2.51-2.507 2.511 2.511 0 0 1 2.51-2.506h.043V5.39a.595.595 0 1 1 1.19 0v1.317h1.32a.595.595 0 1 1 0 1.19H10.13a1.32 1.32 0 0 0-1.318 1.316c0 .726.591 1.317 1.318 1.317z"/><path fill="none" stroke="#f5fbfe" stroke-miterlimit="20" stroke-width=".5" d="M17.96 3.946a10.08 10.08 0 0 1 2.978 7.178 10.08 10.08 0 0 1-2.978 7.18 10.113 10.113 0 0 1-7.191 2.973c-2.716 0-5.27-1.056-7.19-2.973A10.08 10.08 0 0 1 .6 11.124 10.08 10.08 0 0 1 3.58 3.946a10.113 10.113 0 0 1 7.19-2.974c2.716 0 5.27 1.057 7.191 2.974zm-7.191 16.141c4.95 0 8.977-4.02 8.977-8.963 0-4.941-4.027-8.962-8.977-8.962s-8.977 4.02-8.977 8.962 4.027 8.963 8.977 8.963zm.638-9.557a2.512 2.512 0 0 1 2.51 2.506 2.511 2.511 0 0 1-2.51 2.506h-.042v1.317a.595.595 0 0 1-1.191 0v-1.317h-1.32a.595.595 0 0 1 0-1.189h2.553a1.32 1.32 0 0 0 1.319-1.317c0-.726-.591-1.316-1.319-1.316h-1.276a2.511 2.511 0 0 1-2.51-2.507 2.511 2.511 0 0 1 2.51-2.506h.043V5.39a.595.595 0 1 1 1.19 0v1.317h1.32a.595.595 0 1 1 0 1.19H10.13a1.32 1.32 0 0 0-1.318 1.316c0 .726.591 1.317 1.318 1.317z"/></g></g></svg>