<?xml version="1.0" standalone="no"?>
<!DOCTYPE svg PUBLIC "-//W3C//DTD SVG 20010904//EN"
 "http://www.w3.org/TR/2001/REC-SVG-20010904/DTD/svg10.dtd">
<svg version="1.0" xmlns="http://www.w3.org/2000/svg"
 width="1040.000000pt" height="1040.000000pt" viewBox="0 0 1040.000000 1040.000000"
 preserveAspectRatio="xMidYMid meet">
<metadata>
Created by potrace 1.11, written by Peter Selinger 2001-2013
</metadata>
<g transform="translate(0.000000,1040.000000) scale(0.100000,-0.100000)"
fill="#000000" stroke="none">
<path d="M8440 9949 c-122 -15 -151 -21 -255 -49 -81 -23 -244 -82 -280 -102
-11 -6 -53 -29 -94 -51 -41 -22 -81 -46 -89 -53 -7 -8 -20 -14 -28 -14 -8 0
-14 -3 -14 -7 0 -5 -21 -21 -45 -38 -25 -16 -45 -33 -45 -37 0 -5 -4 -8 -9 -8
-18 0 -153 -128 -226 -214 -22 -26 -52 -61 -67 -79 -15 -18 -28 -38 -28 -44 0
-7 -4 -13 -10 -13 -5 0 -10 -7 -10 -15 0 -8 -4 -15 -8 -15 -5 0 -16 -15 -25
-32 -10 -18 -25 -46 -36 -63 -18 -29 -203 -351 -225 -390 -6 -11 -13 -22 -16
-25 -3 -3 -17 -26 -30 -52 -14 -27 -29 -48 -33 -48 -5 0 -6 -4 -2 -9 3 -5 -2
-16 -10 -24 -8 -9 -15 -18 -15 -21 0 -3 -52 -93 -115 -202 -63 -108 -115 -198
-115 -199 0 -1 -37 -65 -81 -141 -45 -77 -95 -164 -112 -194 -16 -30 -38 -67
-49 -82 -10 -14 -18 -29 -18 -32 0 -3 -26 -49 -58 -103 -32 -54 -62 -105 -65
-113 -4 -8 -16 -28 -27 -45 -10 -16 -29 -50 -42 -75 -13 -25 -29 -51 -35 -58
-7 -7 -20 -29 -29 -48 -22 -45 -40 -52 -65 -25 -11 11 -26 21 -34 21 -8 0 -15
4 -15 8 0 17 -278 189 -450 279 -82 42 -280 133 -292 133 -8 0 -18 4 -23 8
-13 11 -188 74 -196 70 -3 -2 -12 2 -20 8 -12 9 -60 25 -79 26 -3 0 -13 4 -23
10 -10 5 -31 12 -45 14 -15 3 -38 9 -52 14 -14 5 -56 16 -95 25 -38 8 -81 18
-95 22 -41 10 -54 13 -80 17 -14 2 -52 8 -85 14 -33 6 -78 14 -100 17 -22 3
-51 7 -65 10 -14 2 -61 7 -105 10 -44 4 -100 9 -125 11 -68 6 -427 6 -495 0
-178 -16 -247 -23 -297 -31 -24 -4 -56 -9 -73 -11 -28 -4 -149 -28 -202 -39
-55 -12 -173 -42 -211 -54 -18 -5 -36 -11 -40 -12 -4 -1 -11 -3 -17 -5 -5 -1
-46 -14 -90 -27 -89 -27 -260 -91 -350 -132 -187 -84 -434 -214 -477 -253 -10
-8 -18 -11 -18 -6 0 5 -4 5 -8 -1 -4 -5 -47 -37 -97 -69 -49 -32 -91 -63 -93
-68 -2 -4 -8 -8 -13 -8 -10 0 -23 -9 -57 -40 -10 -8 -33 -26 -52 -40 -19 -13
-40 -29 -46 -35 -6 -5 -30 -26 -54 -45 -136 -110 -360 -334 -465 -465 -16 -20
-37 -45 -46 -54 -9 -9 -46 -56 -83 -106 -36 -49 -69 -94 -74 -100 -10 -12
-132 -200 -167 -257 -23 -37 -45 -78 -101 -188 -53 -104 -80 -161 -135 -285
-27 -61 -126 -341 -135 -380 -1 -5 -16 -61 -32 -123 -17 -62 -31 -115 -31
-117 -1 -3 -1 -6 -2 -7 0 -2 -2 -12 -4 -23 -2 -11 -5 -30 -8 -41 -3 -12 -8
-37 -11 -55 -3 -19 -8 -51 -11 -73 -4 -21 -9 -48 -11 -60 -2 -11 -7 -43 -9
-71 -3 -27 -7 -59 -10 -70 -26 -126 -27 -701 0 -870 2 -16 7 -52 10 -79 3 -27
8 -52 10 -55 1 -3 6 -28 9 -56 3 -27 10 -69 15 -92 4 -24 6 -43 3 -43 -2 0 1
-7 8 -15 7 -8 10 -15 7 -15 -3 0 -1 -17 4 -37 9 -35 16 -65 24 -103 2 -8 4
-16 5 -17 2 -2 4 -7 5 -13 1 -5 3 -11 5 -12 1 -2 3 -12 5 -23 6 -39 49 -184
65 -220 4 -11 15 -40 24 -65 35 -104 52 -148 103 -260 9 -19 16 -36 15 -38 -1
-1 29 -62 67 -135 97 -188 105 -202 114 -205 4 -2 7 -8 7 -13 0 -10 99 -168
117 -187 7 -7 13 -17 13 -22 0 -4 18 -31 40 -59 22 -28 40 -55 40 -61 0 -5 4
-10 8 -10 4 0 15 -12 25 -28 9 -15 29 -41 44 -59 15 -18 35 -41 43 -51 83
-107 358 -390 449 -462 24 -19 53 -44 65 -56 28 -27 231 -180 268 -201 15 -10
28 -21 28 -25 0 -4 5 -8 11 -8 5 0 41 -20 79 -45 38 -25 74 -45 79 -45 6 0 11
-4 11 -8 0 -8 31 -26 195 -111 39 -20 77 -41 85 -46 8 -5 17 -10 20 -11 7 -1
46 -18 110 -47 112 -51 150 -66 150 -60 0 3 6 1 13 -4 29 -24 267 -102 447
-147 8 -2 33 -9 55 -15 22 -5 56 -13 75 -16 19 -3 50 -10 67 -15 18 -4 41 -7
50 -5 10 1 23 -1 28 -5 6 -5 28 -9 50 -11 22 -1 44 -5 50 -8 5 -3 29 -6 54 -8
24 -1 58 -5 75 -7 156 -26 638 -26 831 -1 22 3 60 7 85 9 25 3 45 5 45 6 0 2
27 7 72 14 98 14 119 17 133 23 8 4 24 7 35 8 11 1 31 5 45 8 14 3 34 8 45 10
96 22 192 50 340 100 50 16 96 30 103 30 6 0 12 5 12 10 0 6 3 7 7 4 3 -4 11
-3 17 2 6 5 28 14 49 21 22 7 51 18 65 26 15 8 30 14 34 14 12 0 299 141 339
166 20 13 40 20 43 17 3 -4 6 -1 6 5 0 7 5 12 11 12 6 0 25 11 43 25 18 14 36
25 41 25 9 0 114 68 133 87 7 7 18 13 23 13 6 0 16 6 23 12 8 7 24 20 36 28
50 33 218 163 262 202 14 13 54 48 88 78 102 90 234 226 340 349 25 29 50 58
55 64 6 7 33 41 60 77 28 36 52 67 56 70 3 3 15 22 28 43 12 20 27 37 32 37 5
0 9 4 9 9 0 8 75 129 97 156 4 6 15 24 23 40 8 17 18 32 21 35 3 3 16 25 29
50 14 25 30 52 36 60 6 8 25 40 41 70 41 76 57 104 63 110 3 3 13 21 23 40 9
19 26 49 36 65 10 17 71 122 136 235 65 113 129 222 142 242 12 21 23 40 23
43 0 4 14 26 30 51 17 24 28 44 25 44 -4 0 1 7 9 16 9 8 14 19 11 24 -3 5 -2
10 3 12 4 1 30 41 57 88 28 46 55 92 60 101 38 64 75 134 75 141 0 4 5 8 10 8
6 0 10 4 10 9 0 9 94 174 237 417 29 50 53 96 53 102 0 7 4 12 9 12 5 0 14 15
22 33 7 17 16 34 19 37 4 3 18 25 32 50 91 163 120 213 140 239 10 13 15 27
12 32 -3 5 0 9 5 9 6 0 11 7 11 15 0 8 3 15 8 15 4 0 20 27 36 60 16 33 33 60
38 60 4 0 8 4 8 10 0 5 14 33 31 62 18 29 43 73 57 98 14 25 34 59 44 75 10
17 22 39 28 50 6 11 21 38 34 60 67 115 101 174 124 215 14 25 33 57 43 72 11
14 19 29 19 33 0 5 66 119 117 202 7 13 12 24 11 25 -2 2 7 18 20 36 13 17 20
32 15 32 -4 0 -2 4 4 8 14 9 153 247 153 262 0 6 3 10 8 10 4 0 12 10 18 23
17 35 49 92 54 97 3 3 16 25 29 50 14 25 37 65 52 90 15 25 42 72 60 105 17
33 34 62 38 65 3 3 16 23 28 45 45 84 482 841 492 852 6 7 11 15 11 19 0 3 19
39 43 78 76 125 179 355 192 426 1 3 4 14 8 25 6 20 16 63 22 100 2 11 4 20 5
20 6 0 23 135 24 188 0 20 3 37 6 37 6 0 3 155 -4 240 -8 96 -29 235 -36 235
-1 0 -3 11 -6 24 -8 46 -37 137 -66 211 -39 100 -119 260 -130 260 -4 0 -8 5
-8 11 0 5 -19 37 -42 71 -24 33 -47 67 -53 76 -35 52 -206 228 -265 272 -19
14 -45 34 -59 46 -40 32 -151 104 -162 104 -5 0 -9 4 -9 8 0 7 -43 27 -64 29
-5 1 -12 5 -15 10 -19 28 -306 133 -368 135 -5 0 -15 4 -24 8 -8 5 -35 11 -60
14 -24 3 -55 8 -69 12 -38 9 -357 11 -420 3z m260 -1200 c8 -1 22 -3 30 -6 8
-3 24 -8 34 -10 40 -7 140 -65 183 -106 48 -45 108 -137 124 -189 27 -92 30
-208 5 -293 -1 -5 -10 -26 -18 -46 -14 -32 -38 -74 -155 -274 -12 -22 -28 -52
-34 -67 -6 -16 -14 -28 -17 -28 -4 0 -20 -27 -36 -60 -16 -33 -33 -60 -38 -60
-4 0 -8 -4 -8 -10 0 -5 -14 -33 -31 -62 -18 -29 -43 -73 -57 -98 -14 -25 -34
-58 -44 -75 -10 -16 -21 -37 -25 -45 -4 -8 -26 -48 -50 -88 -24 -40 -43 -77
-43 -82 0 -6 -3 -10 -7 -10 -5 0 -13 -10 -19 -23 -37 -75 -68 -127 -76 -127
-5 0 -7 -4 -4 -9 3 -5 -1 -14 -9 -21 -8 -7 -15 -16 -15 -20 0 -7 -54 -103
-129 -228 -17 -29 -31 -55 -31 -58 0 -2 -12 -23 -27 -47 -15 -23 -32 -51 -38
-62 -32 -58 -66 -117 -87 -152 -13 -21 -29 -49 -36 -63 -7 -14 -23 -43 -36
-65 -151 -259 -212 -364 -220 -382 -6 -13 -14 -23 -18 -23 -5 0 -8 -5 -8 -11
0 -8 -33 -68 -100 -179 -5 -8 -37 -64 -72 -125 -34 -60 -71 -123 -81 -140 -10
-16 -23 -42 -30 -57 -6 -16 -15 -28 -19 -28 -4 0 -8 -6 -8 -14 0 -7 -7 -19
-15 -26 -13 -10 -15 -9 -15 8 0 12 -5 24 -10 27 -6 4 -8 11 -5 16 4 5 1 9 -5
9 -6 0 -9 4 -6 8 6 9 -81 247 -112 309 -12 22 -18 43 -15 47 4 3 1 6 -5 6 -7
0 -12 6 -12 14 0 7 -32 76 -71 152 -40 77 -77 149 -83 161 -6 13 -14 23 -18
23 -5 0 -8 9 -8 19 0 11 -3 21 -7 23 -14 6 -123 185 -123 201 0 9 5 19 11 23
6 3 17 21 25 38 8 17 28 52 44 78 15 25 26 49 23 52 -4 3 -1 6 6 6 6 0 15 10
20 23 5 12 36 68 70 125 34 57 61 108 61 113 0 5 5 9 11 9 5 0 8 4 5 9 -3 5 1
14 9 21 8 7 15 19 15 26 0 8 4 14 8 14 4 0 13 12 19 28 7 15 23 45 37 67 14
22 34 57 43 78 10 20 21 37 25 37 5 0 8 4 8 9 0 12 112 205 122 209 4 2 6 8 2
13 -3 5 0 9 5 9 6 0 11 5 11 11 0 6 15 37 34 68 19 31 43 73 55 94 12 20 30
54 42 75 40 72 63 107 73 114 6 4 7 8 2 8 -5 0 -1 9 9 20 10 11 14 20 9 20 -5
0 -4 4 1 8 6 4 16 18 24 32 8 14 36 63 63 109 26 46 48 88 48 92 0 5 4 9 9 9
5 0 11 8 14 18 3 9 22 44 42 77 19 33 45 79 57 103 12 23 26 42 30 42 4 0 8 9
8 19 0 11 4 21 8 23 10 4 92 146 92 159 0 5 5 9 10 9 6 0 10 4 10 9 0 19 85
152 123 194 58 61 132 109 190 123 4 1 8 2 10 4 3 3 39 10 77 17 19 3 36 6 38
7 1 2 21 1 45 -1 23 -2 49 -4 57 -4z m-4660 -2013 c92 -10 132 -15 155 -20 11
-2 45 -7 75 -12 58 -8 68 -10 73 -13 1 -2 12 -4 25 -7 50 -9 171 -43 242 -68
41 -14 83 -28 92 -30 10 -3 32 -11 50 -20 44 -20 112 -49 118 -50 16 -4 221
-112 255 -134 22 -15 52 -33 67 -41 15 -8 37 -22 47 -33 11 -10 23 -18 26 -18
7 0 70 -46 99 -73 11 -9 35 -27 53 -40 18 -12 33 -26 33 -32 -1 -5 -14 -32
-30 -60 -16 -27 -33 -57 -37 -65 -4 -8 -41 -73 -84 -146 -42 -72 -88 -151
-102 -175 -71 -127 -170 -295 -178 -305 -5 -6 -6 -14 -2 -17 3 -4 2 -7 -3 -7
-6 0 -21 -22 -35 -50 -13 -27 -27 -50 -31 -50 -5 0 -8 -6 -8 -13 0 -8 -9 -24
-20 -37 -11 -13 -20 -27 -20 -32 0 -4 -18 -38 -40 -74 -22 -36 -40 -70 -40
-75 0 -5 -4 -9 -9 -9 -8 0 -24 -37 -22 -52 1 -5 -3 -8 -9 -8 -5 0 -16 -15 -25
-32 -8 -18 -26 -53 -41 -78 -14 -25 -45 -76 -67 -115 -22 -38 -44 -73 -49 -76
-6 -3 -9 -9 -9 -13 1 -6 -19 -46 -44 -88 -67 -115 -162 -279 -173 -303 -9 -16
-18 -32 -22 -35 -6 -5 -81 -136 -89 -155 -2 -5 -12 -21 -21 -35 -10 -14 -37
-61 -60 -105 -24 -44 -46 -82 -50 -85 -4 -3 -9 -12 -13 -20 -10 -22 -26 -46
-86 -130 -69 -96 -293 -320 -320 -320 -5 0 -11 -4 -13 -9 -1 -5 -32 -27 -68
-50 -36 -22 -71 -45 -77 -51 -7 -6 -13 -8 -13 -4 0 4 -9 -1 -20 -11 -11 -10
-20 -15 -20 -11 0 3 -19 -6 -42 -21 -24 -14 -44 -26 -46 -25 -1 1 -17 -4 -35
-11 -17 -8 -50 -20 -72 -27 -22 -7 -46 -17 -52 -23 -7 -5 -13 -7 -13 -4 0 3
-15 1 -32 -4 -56 -18 -148 -39 -189 -44 -21 -3 -58 -8 -81 -11 -55 -8 -259 -8
-323 -1 -96 12 -140 18 -155 24 -8 3 -22 7 -30 8 -193 30 -521 195 -680 341
-81 75 -200 200 -200 210 0 3 -6 11 -12 18 -7 8 -20 24 -28 36 -8 12 -21 28
-27 36 -7 7 -13 17 -13 23 0 6 -4 11 -9 11 -5 0 -12 8 -15 18 -3 9 -20 40 -36
67 -17 28 -33 57 -36 65 -4 8 -16 35 -28 60 -11 25 -21 47 -22 50 0 3 -6 19
-13 35 -7 17 -14 37 -16 45 -2 8 -4 16 -4 18 -1 1 0 3 1 5 1 1 -4 13 -11 26
-7 13 -15 33 -17 45 -2 11 -8 41 -14 66 -18 76 -27 153 -24 190 6 66 26 175
51 280 13 58 26 112 28 120 2 8 8 26 13 40 5 14 10 27 10 30 0 3 4 14 7 25 27
82 40 116 56 147 5 10 9 26 9 37 0 10 7 24 15 31 8 7 15 20 15 29 0 9 5 22 12
29 7 7 8 12 2 12 -5 0 -3 4 4 9 7 4 14 14 15 22 2 8 13 31 25 50 12 20 22 39
22 43 0 11 122 211 131 214 5 2 9 7 9 12 0 13 83 130 92 130 4 0 8 5 8 11 0
26 248 288 373 394 33 28 96 76 140 108 45 32 84 63 85 68 2 5 12 9 22 9 10 0
20 3 22 8 4 9 83 59 148 93 25 13 47 27 48 32 2 4 7 7 12 7 5 0 44 17 87 37
43 20 80 37 83 38 3 1 19 7 35 14 123 52 373 129 470 145 17 3 41 7 55 10 24
6 95 16 136 19 10 1 22 7 26 12 5 6 8 5 8 -3 0 -7 5 -10 10 -7 6 4 36 9 68 11
31 3 57 6 59 7 5 6 344 -1 403 -7z m2190 -1696 c0 -19 2 -25 10 -35 21 -26 97
-322 115 -450 2 -11 6 -33 9 -50 25 -138 26 -519 1 -685 -20 -136 -30 -186
-51 -269 -9 -36 -17 -73 -19 -83 -2 -10 -7 -23 -10 -28 -3 -5 -8 -18 -10 -28
-4 -24 -49 -156 -75 -222 -31 -78 -122 -264 -132 -268 -4 -2 -8 -12 -8 -23 0
-10 -4 -19 -9 -19 -5 0 -11 -8 -15 -17 -3 -10 -11 -27 -18 -38 -224 -344 -415
-554 -688 -754 -30 -22 -60 -45 -67 -51 -7 -5 -16 -10 -21 -10 -5 0 -21 -11
-36 -25 -14 -13 -26 -22 -26 -20 0 3 -24 -10 -52 -28 -29 -18 -66 -39 -83 -47
-16 -8 -32 -17 -35 -20 -3 -3 -34 -19 -70 -34 -36 -16 -68 -33 -71 -38 -3 -5
-10 -9 -15 -9 -5 0 -56 -18 -114 -40 -58 -23 -109 -42 -115 -43 -5 -1 -14 -4
-20 -7 -5 -4 -23 -10 -40 -14 -16 -5 -34 -9 -40 -11 -5 -2 -28 -8 -50 -14 -22
-6 -49 -13 -60 -16 -11 -3 -29 -7 -40 -9 -11 -2 -31 -6 -45 -10 -14 -3 -36 -7
-50 -10 -14 -3 -36 -7 -50 -10 -27 -6 -46 -9 -155 -20 -38 -4 -83 -9 -100 -11
-39 -4 -309 -4 -360 0 -86 7 -191 18 -210 22 -11 3 -36 7 -55 10 -19 3 -63 12
-96 19 -34 8 -73 16 -85 19 -101 20 -314 96 -477 172 -40 19 -78 34 -85 34 -8
0 -7 4 3 9 8 6 17 8 20 6 9 -6 101 -7 130 -2 14 2 107 52 208 111 101 58 187
106 192 106 5 0 10 4 12 8 4 9 167 102 179 102 5 0 9 5 9 10 0 6 4 10 9 10 6
0 117 62 248 138 131 76 245 141 253 145 8 4 29 16 45 26 40 25 147 86 215
124 30 16 67 38 82 49 14 10 29 18 32 18 3 0 29 14 58 31 86 51 121 71 153 87
17 9 32 18 35 21 5 6 15 12 99 59 25 14 60 33 76 43 59 35 141 82 185 106 25
14 74 42 110 64 36 21 99 57 140 80 42 23 81 51 86 63 6 12 34 61 62 110 29
49 52 93 52 97 0 5 5 9 10 9 6 0 10 4 10 9 0 4 29 59 65 120 36 62 65 116 65
122 0 5 5 9 10 9 6 0 10 4 10 9 0 4 22 46 48 92 27 46 55 95 63 109 8 14 20
33 28 43 8 9 11 17 7 17 -4 0 2 10 13 22 11 11 18 24 16 28 -3 4 2 13 10 20 8
7 15 16 15 20 0 4 59 108 131 231 126 215 172 298 172 309 0 3 5 10 12 15 11
10 203 343 217 377 8 19 28 25 28 8z"/>
</g>
</svg>
