<svg xmlns="http://www.w3.org/2000/svg" width="32" height="22" viewBox="0 0 32 22"><g><g><path fill="#123273" d="M.568 2.466c0-.02.03-.212.09-.577l10.297 8.807-10.266 9.87c-.08-.283-.121-.486-.121-.607zM1.935.675c.141-.061.313-.092.516-.092H30.18c.181 0 .364.03.546.092L20.4 9.512l-1.367 1.093-2.703 2.217-2.702-2.217-1.367-1.093zM12.322 11.82l4.008 3.25 4.01-3.25 10.355 9.93c-.162.061-.334.091-.515.091H2.45c-.161 0-.323-.03-.485-.09zm9.384-1.124L31.972 1.89c.06.182.09.375.09.577V19.96c0 .182-.03.384-.09.607z"/></g></g></svg>