<svg xmlns="http://www.w3.org/2000/svg" width="382.944" height="356.769" viewBox="0 0 382.944 356.769">
    <defs>
        <clipPath id="prefix__clip-path">
            <path id="prefix__Path_390" d="M0-236.929h382.944V-593.7H0z" data-name="Path 390" transform="translate(0 593.698)" style="fill:none"/>
        </clipPath>
    </defs>
    <g id="prefix__ourmission_background_image" data-name="ourmission background image" transform="translate(0 593.698)" style="opacity:.295">
        <g id="prefix__Group_408" data-name="Group 408" transform="translate(0 -593.698)">
            <g id="prefix__Group_407" data-name="Group 407">
                <path id="prefix__Path_389" d="M-183.307-115.925a141.653 141.653 0 0 0-18.277-38.313l47.732-82.677a17.512 17.512 0 0 1 23.895-6.4 17.512 17.512 0 0 1 6.4 23.9zM-363.027 10.4a103.116 103.116 0 0 0 95.986-51.261l39.005-67.557a96.14 96.14 0 0 1-6.8 81.75A96.4 96.4 0 0 1-363.027 10.4m92.943-168.608a96.408 96.408 0 0 1 13.546 9.482l-6.854 11.87-42.479 73.577a58.229 58.229 0 0 1-79.454 21.29A58.1 58.1 0 0 1-413.934-85.2a95.706 95.706 0 0 1 12.311-37.767 96.222 96.222 0 0 1 13.393-17.954 96.529 96.529 0 0 1 105.83-23.262 96.54 96.54 0 0 1 12.312 5.973m162.546-123.935a62.4 62.4 0 0 0-85.143 22.814l-41.2 71.364a141.8 141.8 0 0 0-13.782-9.073c-56.2-32.448-125.675-21.711-169.767 21.833a140.769 140.769 0 0 0-23.019 29.825 140.272 140.272 0 0 0-18.512 60.171A141.3 141.3 0 0 0-388.8 47.4c67.4 38.914 153.881 15.742 192.792-51.653L-84.724-197a62.4 62.4 0 0 0-22.814-85.143" data-name="Path 389" transform="translate(459.33 290.484)" style="fill:#e8eff7"/>
            </g>
        </g>
    </g>
</svg>
