<svg xmlns="http://www.w3.org/2000/svg" width="200.26" height="60.914"><defs><clipPath id="prefix__clip-path"><path id="prefix__Path_292" d="M54.658-25.4a10.645 10.645 0 00-9.13 5.319L38.492-7.9a24.441 24.441 0 00-2.352-1.546A24.14 24.14 0 007.154-5.72 24.159 24.159 0 003.223-.626 23.96 23.96 0 00.062 9.648a24.122 24.122 0 0011.981 22.64A24.122 24.122 0 0044.96 23.47l19-32.909a10.654 10.654 0 00-3.9-14.54 10.576 10.576 0 00-5.2-1.422h-.209zM44.008-2.139l8.149-14.115a2.991 2.991 0 014.079-1.094 2.988 2.988 0 011.094 4.079L47.128 4.4a24.2 24.2 0 00-3.12-6.542M12.636 17.027A9.921 9.921 0 017.751 9.65 16.324 16.324 0 019.854 3.2 16.341 16.341 0 0112.139.137a16.481 16.481 0 0118.07-3.974 16.32 16.32 0 012.1 1.022A16.252 16.252 0 0134.624-1.2L33.454.83 26.2 13.391a9.937 9.937 0 01-8.616 4.964 9.891 9.891 0 01-4.95-1.329m20.2.194L39.49 5.683a16.4 16.4 0 01-1.161 13.957 16.456 16.456 0 01-21.888 6.331q.565.036 1.13.036a17.6 17.6 0 0015.262-8.787" class="prefix__cls-1" data-name="Path 292" transform="translate(0 25.401)"/></clipPath><clipPath id="prefix__clip-path-2"><path id="prefix__Path_294" d="M83.633-14.962q-1.46 1.737-2.041 6.23l-.681 4.887h-3.52l-.5 3.808h3.561l-2.087 15.816h4.449L84.907-.036h3.971l.522-3.809h-4l.559-4.2a9.962 9.962 0 01.993-3.779 2.116 2.116 0 011.883-.923 4.172 4.172 0 011.036.146 10.171 10.171 0 011.345.477l.5-3.851A8.5 8.5 0 0090-16.526a9.451 9.451 0 00-1.842-.175 5.575 5.575 0 00-4.523 1.739m-35.163-1.346L46.465-1.135a9.264 9.264 0 00-3.086-2.547 8.411 8.411 0 00-3.767-.847 8.131 8.131 0 00-6.686 3.24 13.343 13.343 0 00-2.566 8.537q0 4.475 2.1 6.9a7.443 7.443 0 005.952 2.432 8.056 8.056 0 003.353-.691 8.9 8.9 0 002.837-2.1l-.249 1.988h4.369l4.2-32.087zM36.278 11.048a6.765 6.765 0 01-1.3-4.417 9.312 9.312 0 011.5-5.58 4.78 4.78 0 014.07-2.06 4.851 4.851 0 013.742 1.5 5.737 5.737 0 011.389 4.048 10 10 0 01-1.554 5.931 4.927 4.927 0 01-4.225 2.163 4.441 4.441 0 01-3.626-1.585m57.688-24.737a2.55 2.55 0 00-.755 1.873 2.617 2.617 0 00.743 1.9 2.518 2.518 0 001.885.767 2.577 2.577 0 001.895-.777 2.58 2.58 0 00.775-1.895 2.52 2.52 0 00-.775-1.873 2.615 2.615 0 00-1.895-.755 2.546 2.546 0 00-1.873.755M139.471-1.3a13.286 13.286 0 00-2.566 8.509q0 4.471 2.1 6.9a7.443 7.443 0 005.952 2.432 7.969 7.969 0 003.477-.724 7.565 7.565 0 002.669-2.194l-.329 2.154h4.449l2.59-19.624h-4.451l-.4 2.628a9.646 9.646 0 00-3.115-2.494 8.235 8.235 0 00-3.652-.818 8.189 8.189 0 00-6.724 3.231m3.355 12.276a6.676 6.676 0 01-1.3-4.389 9.152 9.152 0 011.511-5.547 4.786 4.786 0 014.058-2.05 4.86 4.86 0 013.748 1.5 5.736 5.736 0 011.386 4.048 9.81 9.81 0 01-1.554 5.878 4.947 4.947 0 01-4.223 2.132 4.443 4.443 0 01-3.621-1.573M122.975-3.648a12.416 12.416 0 00-3.5 2.763 5.511 5.511 0 00-2.07-2.743 6.206 6.206 0 00-3.477-.9 8.461 8.461 0 00-3.532.755 11.225 11.225 0 00-3.216 2.288l.64-2.36h-4.41l-2.588 19.624h4.41l1.242-9.667a12.031 12.031 0 011.79-5.506 4.234 4.234 0 013.592-1.741A2.953 2.953 0 01114.341-.1a5.117 5.117 0 01.808 3.168c0 .165 0 .341-.01.528s-.034.48-.074.88l-1.429 11.3h4.494l1.223-9.667a11.624 11.624 0 011.83-5.518 4.5 4.5 0 013.779-1.729 2.808 2.808 0 012.348 1.049 4.808 4.808 0 01.818 3.012 9.729 9.729 0 01-.122 1.532l-1.492 11.324h4.535l1.365-10.434q.165-1.407.228-2.235a19.92 19.92 0 00.062-1.448 6.351 6.351 0 00-1.544-4.576 5.706 5.706 0 00-4.336-1.614 8.463 8.463 0 00-3.849.88m-65.426 2.36A11.513 11.513 0 0054.453 7a9.3 9.3 0 002.693 6.947 9.654 9.654 0 007.06 2.638 9.923 9.923 0 004.614-1.036 11.254 11.254 0 003.727-3.288l-3.209-2.506a7.155 7.155 0 01-2.389 2.122 6.131 6.131 0 01-2.949.756 4.463 4.463 0 01-3.58-1.585 6.351 6.351 0 01-1.348-4.254h14.964c.043-.508.074-.947.1-1.314q.029-.547.029-.9a9.19 9.19 0 00-2.369-6.636 8.41 8.41 0 00-6.365-2.472 10.421 10.421 0 00-7.878 3.24m3.88 1.77a6.151 6.151 0 013.788-1.161A4.283 4.283 0 0168.355.47a4.4 4.4 0 011.23 3.137H59.463A5.083 5.083 0 0161.429.482m31.26-4.326l-2.526 19.623h4.451L97.2-3.845z" class="prefix__cls-1" data-name="Path 294" transform="translate(-30.359 16.701)"/></clipPath><style>.prefix__cls-1{fill:#fff}</style></defs><g id="prefix__Logo_footer" data-name="Logo footer" transform="translate(-836 -7439.689)"><g id="prefix__Group_303" data-name="Group 303" transform="translate(836 7439.689)"><g id="prefix__Group_302" data-name="Group 302"><path id="prefix__Path_291" d="M0-25.4h200.259v60.913H0z" class="prefix__cls-1" data-name="Path 291" transform="translate(0 25.401)"/></g></g><g id="prefix__Group_305" data-name="Group 305" transform="translate(908.805 7460.553)"><g id="prefix__Group_304" data-name="Group 304" transform="translate(-72.805 -20.863)"><path id="prefix__Path_293" d="M-30.359-22.58H169.9v60.914H-30.359z" class="prefix__cls-1" data-name="Path 293" transform="translate(30.359 22.58)"/></g></g></g></svg>