<svg xmlns="http://www.w3.org/2000/svg" xmlns:xlink="http://www.w3.org/1999/xlink" width="197.23" height="59.992"><defs><linearGradient id="prefix__linear-gradient" x2=".326" y1="1" y2="1" gradientUnits="objectBoundingBox"><stop offset="0" stop-color="#0063aa"/><stop offset=".1" stop-color="#005ea5"/><stop offset=".2" stop-color="#0059a1"/><stop offset=".3" stop-color="#01549c"/><stop offset=".4" stop-color="#024f97"/><stop offset=".5" stop-color="#034b92"/><stop offset=".6" stop-color="#03468d"/><stop offset=".7" stop-color="#044188"/><stop offset=".8" stop-color="#053d83"/><stop offset=".9" stop-color="#05397e"/><stop offset="1" stop-color="#063479"/></linearGradient><linearGradient id="prefix__linear-gradient-2" x1=".364" x2="1" y1=".889" y2=".889" xlink:href="#prefix__linear-gradient"/><clipPath id="prefix__clip-path"><path id="prefix__Path_292" d="M53.831-25.4a10.483 10.483 0 00-8.991 5.239l-6.93 12a24.071 24.071 0 00-2.317-1.526 23.775 23.775 0 00-28.548 3.67A23.793 23.793 0 003.174-1 23.6 23.6 0 00.062 9.117a23.757 23.757 0 0011.8 22.3 23.757 23.757 0 0032.418-8.686L62.993-9.681A10.493 10.493 0 0059.155-24a10.416 10.416 0 00-5.118-1.4h-.205zM43.342-2.491l8.026-13.9a2.946 2.946 0 014.017-1.077 2.943 2.943 0 011.077 4.017L46.415 3.952a23.831 23.831 0 00-3.073-6.443m-30.9 18.876A9.771 9.771 0 017.634 9.12 16.077 16.077 0 019.7 2.769 16.094 16.094 0 0111.956-.25a16.232 16.232 0 0117.8-3.914 16.072 16.072 0 012.071 1.006A16.006 16.006 0 0134.1-1.563l-1.153 2L25.805 12.8a9.787 9.787 0 01-8.486 4.889 9.741 9.741 0 01-4.875-1.308m19.891.191l6.557-11.359a16.157 16.157 0 01-1.143 13.746 16.207 16.207 0 01-21.556 6.235q.556.035 1.112.035a17.335 17.335 0 0015.031-8.654" class="prefix__cls-1" data-name="Path 292" transform="translate(0 25.401)"/></clipPath><clipPath id="prefix__clip-path-2"><path id="prefix__Path_294" d="M82.827-14.989q-1.438 1.711-2.01 6.136l-.671 4.813h-3.467L76.19-.289h3.51l-2.06 15.576h4.381l2.06-15.576h3.911l.51-3.751H84.57l.55-4.138a9.812 9.812 0 01.98-3.722 2.084 2.084 0 011.854-.909 4.109 4.109 0 011.02.144 10.017 10.017 0 011.325.47l.489-3.793a8.376 8.376 0 00-1.691-.541 9.308 9.308 0 00-1.814-.172 5.49 5.49 0 00-4.454 1.712M48.2-16.314L46.221-1.37a9.124 9.124 0 00-3.04-2.508 8.283 8.283 0 00-3.71-.834 8.008 8.008 0 00-6.585 3.191 13.141 13.141 0 00-2.527 8.408q0 4.407 2.069 6.8a7.33 7.33 0 005.862 2.395 7.934 7.934 0 003.3-.68 8.762 8.762 0 002.794-2.071l-.246 1.958h4.3l4.136-31.6zM36.188 10.628a6.662 6.662 0 01-1.282-4.35 9.171 9.171 0 011.476-5.5 4.708 4.708 0 014.008-2.026A4.778 4.778 0 0144.079.231a5.65 5.65 0 011.368 3.987 9.844 9.844 0 01-1.53 5.841 4.853 4.853 0 01-4.157 2.13 4.374 4.374 0 01-3.571-1.561M93-13.735a2.511 2.511 0 00-.744 1.845 2.577 2.577 0 00.732 1.875 2.48 2.48 0 001.856.756 2.538 2.538 0 001.866-.765 2.541 2.541 0 00.763-1.866 2.482 2.482 0 00-.763-1.845 2.575 2.575 0 00-1.866-.744 2.507 2.507 0 00-1.844.744m44.82 12.2a13.084 13.084 0 00-2.527 8.38q0 4.4 2.069 6.8a7.33 7.33 0 005.862 2.395 7.848 7.848 0 003.425-.713 7.45 7.45 0 002.629-2.161l-.324 2.121h4.381l2.551-19.327H151.5l-.39 2.589a9.5 9.5 0 00-3.068-2.456 8.11 8.11 0 00-3.6-.805 8.065 8.065 0 00-6.627 3.179m3.3 12.09a6.575 6.575 0 01-1.285-4.322 9.014 9.014 0 011.497-5.463 4.713 4.713 0 014-2.019 4.786 4.786 0 013.688 1.478 5.649 5.649 0 011.365 3.987 9.662 9.662 0 01-1.53 5.789 4.872 4.872 0 01-4.159 2.1 4.376 4.376 0 01-3.566-1.549m-19.551-14.4a12.228 12.228 0 00-3.446 2.721 5.428 5.428 0 00-2.038-2.7 6.112 6.112 0 00-3.425-.886 8.333 8.333 0 00-3.479.744 11.056 11.056 0 00-3.167 2.253l.631-2.324h-4.343l-2.55 19.322h4.343l1.223-9.521a11.849 11.849 0 011.762-5.423 4.17 4.17 0 013.538-1.715A2.908 2.908 0 01113.07-.35a5.039 5.039 0 01.8 3.12c0 .163 0 .335-.009.52-.009.184-.033.472-.073.867l-1.408 11.131h4.42l1.2-9.521a11.448 11.448 0 011.8-5.435 4.431 4.431 0 013.722-1.7 2.766 2.766 0 012.312 1.03 4.736 4.736 0 01.805 2.966 9.39 9.39 0 01-.121 1.509l-1.469 11.153h4.466l1.344-10.276q.163-1.385.224-2.2c.04-.546.061-1.018.061-1.427a6.255 6.255 0 00-1.521-4.506 5.619 5.619 0 00-4.27-1.59 8.335 8.335 0 00-3.791.867m-64.425 2.32a11.338 11.338 0 00-3.049 8.162 9.156 9.156 0 002.652 6.842 9.508 9.508 0 006.953 2.6 9.773 9.773 0 004.544-1.02 11.083 11.083 0 003.67-3.238l-3.16-2.468a7.047 7.047 0 01-2.352 2.09 6.038 6.038 0 01-2.907.744 4.4 4.4 0 01-3.526-1.561 6.255 6.255 0 01-1.327-4.19h14.74c.043-.5.073-.933.094-1.294q.028-.538.028-.886a9.051 9.051 0 00-2.333-6.535A8.282 8.282 0 0064.9-4.712a10.263 10.263 0 00-7.759 3.191M60.959.222a6.058 6.058 0 013.734-1.144A4.218 4.218 0 0167.78.21a4.337 4.337 0 011.211 3.09h-9.969A5.006 5.006 0 0160.959.222m30.786-4.261l-2.487 19.327h4.384L96.19-4.039z" class="prefix__cls-1" data-name="Path 294" transform="translate(-30.359 16.701)"/></clipPath><style>.prefix__cls-1{fill:none}</style></defs><g id="prefix__Group_306" data-name="Group 306" transform="translate(0 25.401)"><g id="prefix__Group_303" data-name="Group 303" transform="translate(0 -25.401)"><g id="prefix__Group_302" data-name="Group 302"><path id="prefix__Path_291" d="M0-25.4h197.228v59.992H0z" data-name="Path 291" transform="translate(0 25.401)"/></g></g><g id="prefix__Group_305" data-name="Group 305" transform="translate(71.703 -4.853)"><g id="prefix__Group_304" data-name="Group 304" transform="translate(-71.703 -20.547)"><path id="prefix__Path_293" d="M-30.359-22.58h197.228v59.992H-30.359z" data-name="Path 293" transform="translate(30.359 22.58)"/></g></g></g></svg>