<svg xmlns="http://www.w3.org/2000/svg" xmlns:xlink="http://www.w3.org/1999/xlink"><symbol id="burger-icon-white" viewBox="0 0 46 26"><g><g><path fill="none" stroke="#f5fbff" stroke-linecap="round" stroke-miterlimit="20" stroke-width="5" d="M3 3h40"/></g><g><path fill="none" stroke="#f5fbff" stroke-linecap="round" stroke-miterlimit="20" stroke-width="5" d="M3 13h40"/></g><g><path fill="none" stroke="#f5fbff" stroke-linecap="round" stroke-miterlimit="20" stroke-width="5" d="M3 23h32"/></g></g></symbol><symbol id="dashboards-icon-white" viewBox="0 0 31 37"><g><g><path fill="#f5fbff" d="M10.884 4.873c1.26-1.26 2.737-1.871 4.517-1.871 1.78 0 3.257.612 4.517 1.871 1.26 1.26 1.872 2.737 1.872 4.517 0 1.78-.613 3.257-1.872 4.517-1.26 1.26-2.737 1.872-4.517 1.872-1.78 0-3.257-.613-4.517-1.872-1.26-1.26-1.872-2.737-1.872-4.517 0-1.78.613-3.257 1.872-4.517zm4.517 12.96c2.32 0 4.328-.832 5.97-2.474 1.64-1.641 2.473-3.65 2.473-5.97 0-2.318-.832-4.327-2.474-5.968C19.73 1.78 17.72.948 15.4.948c-2.319 0-4.327.832-5.968 2.473S6.958 7.071 6.958 9.39c0 2.32.833 4.328 2.474 5.97 1.641 1.64 3.65 2.472 5.969 2.472z"/><path fill="none" stroke="#f5fbff" stroke-miterlimit="20" stroke-width=".5" d="M10.884 4.873c1.26-1.26 2.737-1.871 4.517-1.871 1.78 0 3.257.612 4.517 1.871 1.26 1.26 1.872 2.737 1.872 4.517 0 1.78-.613 3.257-1.872 4.517-1.26 1.26-2.737 1.872-4.517 1.872-1.78 0-3.257-.613-4.517-1.872-1.26-1.26-1.872-2.737-1.872-4.517 0-1.78.613-3.257 1.872-4.517zm4.517 12.96c2.32 0 4.328-.832 5.97-2.474 1.64-1.641 2.473-3.65 2.473-5.97 0-2.318-.832-4.327-2.474-5.968C19.73 1.78 17.72.948 15.4.948c-2.319 0-4.327.832-5.968 2.473S6.958 7.071 6.958 9.39c0 2.32.833 4.328 2.474 5.97 1.641 1.64 3.65 2.472 5.969 2.472z"/></g><g><path fill="#f5fbff" d="M27.1 32.887c-.75.713-1.743 1.059-3.04 1.059H7.184c-1.296 0-2.29-.346-3.038-1.058-.734-.7-1.09-1.653-1.09-2.916 0-.657.02-1.306.064-1.928.042-.61.129-1.282.257-1.995.126-.704.287-1.365.479-1.963a8.967 8.967 0 0 1 .745-1.689 5.8 5.8 0 0 1 1.014-1.329 4.028 4.028 0 0 1 1.32-.82 4.735 4.735 0 0 1 1.617-.312c.072.038.2.11.408.246.422.275.909.59 1.447.933.606.387 1.388.736 2.321 1.037a9.394 9.394 0 0 0 2.894.466 9.4 9.4 0 0 0 2.894-.465c.935-.302 1.716-.651 2.323-1.039.55-.351 1.024-.657 1.446-.932.208-.135.336-.208.408-.246.59.016 1.134.12 1.618.312.523.207.966.483 1.319.82.376.36.717.808 1.014 1.33.311.547.562 1.115.745 1.688.192.599.353 1.26.48 1.963.128.714.214 1.386.256 1.995v.001c.044.62.066 1.268.066 1.927 0 1.263-.357 2.217-1.09 2.915zm3.074-4.986a20.918 20.918 0 0 0-.285-2.215 17.527 17.527 0 0 0-.544-2.227 11.024 11.024 0 0 0-.916-2.076 7.83 7.83 0 0 0-1.38-1.8 6.087 6.087 0 0 0-1.983-1.245 6.854 6.854 0 0 0-2.532-.459c-.358 0-.704.147-1.372.582-.411.269-.892.58-1.43.922-.458.293-1.08.567-1.849.815-.75.242-1.51.366-2.262.366a7.35 7.35 0 0 1-2.262-.366c-.768-.248-1.39-.522-1.848-.814-.532-.34-1.014-.65-1.43-.923-.669-.435-1.015-.581-1.373-.581-.911 0-1.763.154-2.53.458a6.087 6.087 0 0 0-1.984 1.246 7.834 7.834 0 0 0-1.38 1.799c-.38.67-.689 1.368-.915 2.077a17.52 17.52 0 0 0-.545 2.226 20.627 20.627 0 0 0-.284 2.216c-.046.67-.07 1.366-.07 2.07 0 1.83.582 3.311 1.729 4.404C3.862 35.453 5.36 36 7.183 36h16.878c1.823 0 3.321-.547 4.455-1.624 1.147-1.092 1.728-2.574 1.728-4.404 0-.706-.024-1.403-.07-2.07z"/><path fill="none" stroke="#f5fbff" stroke-miterlimit="20" stroke-width=".5" d="M27.1 32.887c-.75.713-1.743 1.059-3.04 1.059H7.184c-1.296 0-2.29-.346-3.038-1.058-.734-.7-1.09-1.653-1.09-2.916 0-.657.02-1.306.064-1.928.042-.61.129-1.282.257-1.995.126-.704.287-1.365.479-1.963a8.967 8.967 0 0 1 .745-1.689 5.8 5.8 0 0 1 1.014-1.329 4.028 4.028 0 0 1 1.32-.82 4.735 4.735 0 0 1 1.617-.312c.072.038.2.11.408.246.422.275.909.59 1.447.933.606.387 1.388.736 2.321 1.037a9.394 9.394 0 0 0 2.894.466 9.4 9.4 0 0 0 2.894-.465c.935-.302 1.716-.651 2.323-1.039.55-.351 1.024-.657 1.446-.932.208-.135.336-.208.408-.246.59.016 1.134.12 1.618.312.523.207.966.483 1.319.82.376.36.717.808 1.014 1.33.311.547.562 1.115.745 1.688.192.599.353 1.26.48 1.963.128.714.214 1.386.256 1.995v.001c.044.62.066 1.268.066 1.927 0 1.263-.357 2.217-1.09 2.915zm3.074-4.986a20.918 20.918 0 0 0-.285-2.215 17.527 17.527 0 0 0-.544-2.227 11.024 11.024 0 0 0-.916-2.076 7.83 7.83 0 0 0-1.38-1.8 6.087 6.087 0 0 0-1.983-1.245 6.854 6.854 0 0 0-2.532-.459c-.358 0-.704.147-1.372.582-.411.269-.892.58-1.43.922-.458.293-1.08.567-1.849.815-.75.242-1.51.366-2.262.366a7.35 7.35 0 0 1-2.262-.366c-.768-.248-1.39-.522-1.848-.814-.532-.34-1.014-.65-1.43-.923-.669-.435-1.015-.581-1.373-.581-.911 0-1.763.154-2.53.458a6.087 6.087 0 0 0-1.984 1.246 7.834 7.834 0 0 0-1.38 1.799c-.38.67-.689 1.368-.915 2.077a17.52 17.52 0 0 0-.545 2.226 20.627 20.627 0 0 0-.284 2.216c-.046.67-.07 1.366-.07 2.07 0 1.83.582 3.311 1.729 4.404C3.862 35.453 5.36 36 7.183 36h16.878c1.823 0 3.321-.547 4.455-1.624 1.147-1.092 1.728-2.574 1.728-4.404 0-.706-.024-1.403-.07-2.07z"/></g></g></symbol><symbol id="history-icon-white" viewBox="0 0 37 33"><g><g><path fill="#f5fbff" d="M18.74 9.825l-.004 7.758c0 .295.117.576.325.784l5.55 5.549 1.567-1.568-5.224-5.224.003-7.299z"/><path fill="none" stroke="#f5fbff" stroke-miterlimit="20" d="M18.74 9.825v0l-.004 7.758c0 .295.117.576.325.784l5.55 5.549v0l1.567-1.568v0l-5.224-5.224v0l.003-7.299v0z"/></g><g><path fill="#f5fbff" d="M20.959.955C13.154.955 6.694 6.75 5.612 14.26H1l5.544 5.544 5.544-5.544H7.853C8.914 7.978 14.378 3.172 20.96 3.172c7.337 0 13.306 5.97 13.306 13.306 0 7.338-5.969 13.307-13.306 13.307-4.125 0-7.95-1.867-10.493-5.122l-1.748 1.364c2.967 3.797 7.429 5.975 12.241 5.975 8.56 0 15.524-6.965 15.524-15.524C36.483 7.92 29.519.955 20.959.955z"/><path fill="none" stroke="#f5fbff" stroke-miterlimit="20" d="M20.959.955C13.154.955 6.694 6.75 5.612 14.26H1v0l5.544 5.544v0l5.544-5.544v0H7.853C8.914 7.978 14.378 3.172 20.96 3.172c7.337 0 13.306 5.97 13.306 13.306 0 7.338-5.969 13.307-13.306 13.307-4.125 0-7.95-1.867-10.493-5.122l-1.748 1.364c2.967 3.797 7.429 5.975 12.241 5.975 8.56 0 15.524-6.965 15.524-15.524C36.483 7.92 29.519.955 20.959.955z"/></g></g></symbol><symbol id="investment-icon-white" viewBox="0 0 37 37"><g><g><path fill="#f5fbff" d="M14.567 3.002c.202 0 .366.164.366.366v6.6a.367.367 0 0 1-.366.367h-11a.367.367 0 0 1-.367-.367v-6.6c0-.202.164-.366.366-.366zm2.566 6.966v-6.6A2.57 2.57 0 0 0 14.567.802h-11A2.57 2.57 0 0 0 1 3.368v6.6a2.57 2.57 0 0 0 2.566 2.567h11a2.57 2.57 0 0 0 2.567-2.567z"/><path fill="none" stroke="#f5fbff" stroke-miterlimit="20" stroke-width=".2" d="M14.567 3.002c.202 0 .366.164.366.366v6.6a.367.367 0 0 1-.366.367h-11a.367.367 0 0 1-.367-.367v-6.6c0-.202.164-.366.366-.366zm2.566 6.966v-6.6A2.57 2.57 0 0 0 14.567.802h-11A2.57 2.57 0 0 0 1 3.368v6.6a2.57 2.57 0 0 0 2.566 2.567h11a2.57 2.57 0 0 0 2.567-2.567z"/></g><g><path fill="#f5fbff" d="M14.567 17.669c.202 0 .366.164.366.366v15.4a.367.367 0 0 1-.366.367h-11a.367.367 0 0 1-.367-.366v-15.4c0-.203.164-.367.366-.367zm2.566 15.767v-15.4a2.57 2.57 0 0 0-2.566-2.567h-11A2.57 2.57 0 0 0 1 18.035v15.4a2.57 2.57 0 0 0 2.566 2.567h11a2.57 2.57 0 0 0 2.567-2.566z"/><path fill="none" stroke="#f5fbff" stroke-miterlimit="20" stroke-width=".2" d="M14.567 17.669c.202 0 .366.164.366.366v15.4a.367.367 0 0 1-.366.367h-11a.367.367 0 0 1-.367-.366v-15.4c0-.203.164-.367.366-.367zm2.566 15.767v-15.4a2.57 2.57 0 0 0-2.566-2.567h-11A2.57 2.57 0 0 0 1 18.035v15.4a2.57 2.57 0 0 0 2.566 2.567h11a2.57 2.57 0 0 0 2.567-2.566z"/></g><g><path fill="#f5fbff" d="M33.634 26.469c.202 0 .366.164.366.367v6.6a.367.367 0 0 1-.366.366h-11a.367.367 0 0 1-.367-.366v-6.6c0-.203.164-.367.367-.367zm2.566 6.967v-6.6a2.57 2.57 0 0 0-2.566-2.567h-11a2.57 2.57 0 0 0-2.567 2.567v6.6a2.57 2.57 0 0 0 2.567 2.566h11a2.57 2.57 0 0 0 2.566-2.566z"/><path fill="none" stroke="#f5fbff" stroke-miterlimit="20" stroke-width=".2" d="M33.634 26.469c.202 0 .366.164.366.367v6.6a.367.367 0 0 1-.366.366h-11a.367.367 0 0 1-.367-.366v-6.6c0-.203.164-.367.367-.367zm2.566 6.967v-6.6a2.57 2.57 0 0 0-2.566-2.567h-11a2.57 2.57 0 0 0-2.567 2.567v6.6a2.57 2.57 0 0 0 2.567 2.566h11a2.57 2.57 0 0 0 2.566-2.566z"/></g><g><path fill="#f5fbff" d="M33.634 3.002c.202 0 .366.164.366.366v15.4a.367.367 0 0 1-.366.367h-11a.367.367 0 0 1-.367-.366v-15.4c0-.203.164-.367.367-.367zM36.2 18.769v-15.4A2.57 2.57 0 0 0 33.634.801h-11a2.57 2.57 0 0 0-2.567 2.566v15.4a2.57 2.57 0 0 0 2.567 2.568h11a2.57 2.57 0 0 0 2.566-2.567z"/><path fill="none" stroke="#f5fbff" stroke-miterlimit="20" stroke-width=".2" d="M33.634 3.002c.202 0 .366.164.366.366v15.4a.367.367 0 0 1-.366.367h-11a.367.367 0 0 1-.367-.366v-15.4c0-.203.164-.367.367-.367zM36.2 18.769v-15.4A2.57 2.57 0 0 0 33.634.801h-11a2.57 2.57 0 0 0-2.567 2.566v15.4a2.57 2.57 0 0 0 2.567 2.568h11a2.57 2.57 0 0 0 2.566-2.567z"/></g></g></symbol><symbol id="marketing-icon-white" viewBox="0 0 31 35"><g><g><path fill="#f5fbff" d="M28.43 2.356c-.401-.4-1.05-.4-1.45 0l-2.05 2.05a1.025 1.025 0 0 0 1.449 1.45l2.05-2.05c.4-.4.4-1.05 0-1.45zm1.324 5.85h-2.05a1.026 1.026 0 0 0 0 2.05h2.05a1.025 1.025 0 0 0 0-2.05zm-8.2-8.2c-.566 0-1.025.459-1.025 1.025v2.05a1.025 1.025 0 0 0 2.05 0v-2.05c0-.566-.458-1.025-1.025-1.025zM8.15 22.504c-.4-.4-1.05-.4-1.45 0l-1.449 1.45a1.025 1.025 0 0 0 1.45 1.45l1.45-1.45c.4-.4.4-1.05 0-1.45zm18.844-5.798c-.4.4-1.048.4-1.449 0L13.947 5.11a1.025 1.025 0 1 1 1.45-1.45l11.596 11.597c.4.4.4 1.05 0 1.45zm-13.727 5.117L8.83 17.387a23.47 23.47 0 0 0 4.99-9.505l8.952 8.95a23.476 23.476 0 0 0-9.506 4.991zm-.043 2.856c.308-.308.769-.78 1.497-1.402l.677.677c.4.4.4 1.049 0 1.45l-.725.724zm3.624 6.523a1.026 1.026 0 0 1-1.45 1.45l-5.073-5.074 1.449-1.45zM6.7 28.302c-.4.401-1.05.401-1.45 0l-2.899-2.899c-.4-.4-.4-1.048 0-1.449l5.073-5.074 4.349 4.35L6.7 28.302zm21.743-14.495L16.847 2.211a3.074 3.074 0 1 0-4.723 3.895l-.017.08a21.454 21.454 0 0 1-5.887 11L.901 22.505a3.073 3.073 0 0 0 0 4.348l2.9 2.9a3.073 3.073 0 0 0 4.348 0l.725-.726 5.074 5.074a3.073 3.073 0 0 0 4.348 0 3.079 3.079 0 0 0 0-4.349l-2.174-2.174.725-.725a3.073 3.073 0 0 0 0-4.349l-.493-.492a21.462 21.462 0 0 1 8.114-3.465l.082-.017c1.2.81 2.839.68 3.893-.374a3.08 3.08 0 0 0 0-4.349z"/></g></g></symbol><symbol id="support-icon-white" viewBox="0 0 37 37"><g><g><path fill="#f5fbff" d="M33.005 33.012l-2.897-.801-.387.252a9.226 9.226 0 0 1-5.038 1.489 9.285 9.285 0 0 1-8.78-6.31c6.139-.707 11.024-5.593 11.732-11.732a9.285 9.285 0 0 1 6.31 8.78 9.226 9.226 0 0 1-1.49 5.039l-.252.386zm-25.112-9.35l-3.903 1.08 1.08-3.904-.247-.385A11.274 11.274 0 0 1 3.05 14.37c0-6.238 5.074-11.312 11.312-11.312 6.237 0 11.312 5.074 11.312 11.312 0 6.237-5.075 11.311-11.312 11.311-2.165 0-4.268-.613-6.084-1.773zm28.102 1.028c0-5.1-3.437-9.557-8.284-10.9-.305-7.1-6.175-12.783-13.35-12.783C6.995 1.007 1 7.001 1 14.37c0 2.4.639 4.739 1.852 6.792l-1.803 6.52 6.52-1.803a13.313 13.313 0 0 0 6.213 1.84 11.338 11.338 0 0 0 10.9 8.283c2.037 0 4.017-.542 5.757-1.572l5.506 1.523-1.523-5.507a11.272 11.272 0 0 0 1.573-5.756z"/><path fill="none" stroke="#f5fbff" stroke-miterlimit="20" d="M33.005 33.012l-2.897-.801-.387.252a9.226 9.226 0 0 1-5.038 1.489 9.285 9.285 0 0 1-8.78-6.31c6.139-.707 11.024-5.593 11.732-11.732a9.285 9.285 0 0 1 6.31 8.78 9.226 9.226 0 0 1-1.49 5.039l-.252.386zm-25.112-9.35l-3.903 1.08 1.08-3.904-.247-.385A11.274 11.274 0 0 1 3.05 14.37c0-6.238 5.074-11.312 11.312-11.312 6.237 0 11.312 5.074 11.312 11.312 0 6.237-5.075 11.311-11.312 11.311-2.165 0-4.268-.613-6.084-1.773zm28.102 1.028c0-5.1-3.437-9.557-8.284-10.9-.305-7.1-6.175-12.783-13.35-12.783C6.995 1.007 1 7.001 1 14.37c0 2.4.639 4.739 1.852 6.792l-1.803 6.52 6.52-1.803a13.313 13.313 0 0 0 6.213 1.84 11.338 11.338 0 0 0 10.9 8.283c2.037 0 4.017-.542 5.757-1.572l5.506 1.523-1.523-5.507a11.272 11.272 0 0 0 1.573-5.756z"/></g><g><path fill="#f5fbff" d="M13.337 21.58v-2.05h2.05v2.05z"/><path fill="none" stroke="#f5fbff" stroke-miterlimit="20" d="M13.337 21.58v0-2.05 0h2.05v2.05z"/></g><g><path fill="#f5fbff" d="M16.412 11.26a2.03 2.03 0 0 1-.667 1.513l-2.408 2.205v2.502h2.05v-1.6l1.742-1.594a4.112 4.112 0 0 0 1.334-3.026 4.105 4.105 0 0 0-4.101-4.101 4.105 4.105 0 0 0-4.101 4.1h2.05c0-1.13.92-2.05 2.05-2.05 1.132 0 2.051.92 2.051 2.05z"/><path fill="none" stroke="#f5fbff" stroke-miterlimit="20" d="M16.412 11.26a2.03 2.03 0 0 1-.667 1.513l-2.408 2.205v2.502h2.05v0-1.6 0l1.742-1.594a4.112 4.112 0 0 0 1.334-3.026 4.105 4.105 0 0 0-4.101-4.101 4.105 4.105 0 0 0-4.101 4.1h2.05c0-1.13.92-2.05 2.05-2.05 1.132 0 2.051.92 2.051 2.05z"/></g></g></symbol><symbol id="team-icon-white" viewBox="0 0 37 37"><g><g><path fill="#f5fbff" d="M18.532 33.948c-8.534 0-15.478-6.944-15.478-15.478 0-8.535 6.944-15.478 15.478-15.478 8.535 0 15.478 6.943 15.478 15.478 0 8.534-6.943 15.478-15.478 15.478zM30.93 6.072A17.42 17.42 0 0 0 18.532.937 17.42 17.42 0 0 0 6.135 6.072 17.42 17.42 0 0 0 1 18.47a17.42 17.42 0 0 0 5.135 12.397 17.42 17.42 0 0 0 12.397 5.135 17.42 17.42 0 0 0 12.398-5.135 17.42 17.42 0 0 0 5.135-12.397A17.42 17.42 0 0 0 30.93 6.072z"/><path fill="none" stroke="#f5fbff" stroke-miterlimit="20" stroke-width=".5" d="M18.532 33.948c-8.534 0-15.478-6.944-15.478-15.478 0-8.535 6.944-15.478 15.478-15.478 8.535 0 15.478 6.943 15.478 15.478 0 8.534-6.943 15.478-15.478 15.478zM30.93 6.072A17.42 17.42 0 0 0 18.532.937 17.42 17.42 0 0 0 6.135 6.072 17.42 17.42 0 0 0 1 18.47a17.42 17.42 0 0 0 5.135 12.397 17.42 17.42 0 0 0 12.397 5.135 17.42 17.42 0 0 0 12.398-5.135 17.42 17.42 0 0 0 5.135-12.397A17.42 17.42 0 0 0 30.93 6.072z"/></g><g><path fill="#f5fbff" d="M19.633 17.442h-2.201a2.276 2.276 0 0 1-2.274-2.273 2.276 2.276 0 0 1 2.274-2.274h4.401a1.027 1.027 0 1 0 0-2.055h-2.274V8.567a1.027 1.027 0 1 0-2.054 0v2.273h-.073a4.333 4.333 0 0 0-4.329 4.329 4.333 4.333 0 0 0 4.329 4.328h2.2a2.276 2.276 0 0 1 2.274 2.274 2.276 2.276 0 0 1-2.273 2.274H15.23a1.027 1.027 0 1 0 0 2.054h2.274v2.274a1.027 1.027 0 1 0 2.054 0v-2.274h.074a4.333 4.333 0 0 0 4.328-4.328 4.333 4.333 0 0 0-4.328-4.329z"/><path fill="none" stroke="#f5fbff" stroke-miterlimit="20" stroke-width=".5" d="M19.633 17.442v0h-2.201a2.276 2.276 0 0 1-2.274-2.273 2.276 2.276 0 0 1 2.274-2.274h4.401a1.027 1.027 0 1 0 0-2.055h-2.274v0-2.273a1.027 1.027 0 1 0-2.054 0v2.273h-.073a4.333 4.333 0 0 0-4.329 4.329 4.333 4.333 0 0 0 4.329 4.328h2.2a2.276 2.276 0 0 1 2.274 2.274 2.276 2.276 0 0 1-2.273 2.274H15.23a1.027 1.027 0 1 0 0 2.054h2.274v2.274a1.027 1.027 0 1 0 2.054 0v-2.274 0h.074a4.333 4.333 0 0 0 4.328-4.328 4.333 4.333 0 0 0-4.328-4.329z"/></g></g></symbol></svg>