<svg xmlns="http://www.w3.org/2000/svg" width="65" height="65" viewBox="0 0 65 65"><defs><mask id="3963b" width="2" height="2" x="-1" y="-1"><path fill="#fff" d="M16 16h33v33H16z"/><path d="M25.752 16.193h12.98a9.728 9.728 0 0 1 9.733 9.74v12.986c0 5.386-4.35 9.74-9.734 9.74H25.752a9.727 9.727 0 0 1-9.733-9.74V25.933c0-5.386 4.35-9.74 9.733-9.74z"/></mask><filter id="3963a" width="99" height="99" x="-17" y="-17" filterUnits="userSpaceOnUse"><feOffset in="SourceGraphic" result="FeOffset1032Out"/><feGaussianBlur in="FeOffset1032Out" result="FeGaussianBlur1033Out" stdDeviation="9.2 9.2"/></filter></defs><g><g><g filter="url(#3963a)"><path fill="none" d="M25.752 16.193h12.98a9.728 9.728 0 0 1 9.733 9.74v12.986c0 5.386-4.35 9.74-9.734 9.74H25.752a9.727 9.727 0 0 1-9.733-9.74V25.933c0-5.386 4.35-9.74 9.733-9.74z" mask="url(&quot;#3963b&quot;)"/><path fill-opacity=".08" d="M25.752 16.193h12.98a9.728 9.728 0 0 1 9.733 9.74v12.986c0 5.386-4.35 9.74-9.734 9.74H25.752a9.727 9.727 0 0 1-9.733-9.74V25.933c0-5.386 4.35-9.74 9.733-9.74z"/></g><path fill="#fff" d="M25.752 16.193h12.98a9.728 9.728 0 0 1 9.733 9.74v12.986c0 5.386-4.35 9.74-9.734 9.74H25.752a9.727 9.727 0 0 1-9.733-9.74V25.933c0-5.386 4.35-9.74 9.733-9.74z"/></g><g/></g></svg>